<svg xmlns="http://www.w3.org/2000/svg" viewBox="0 0 64 64">
  <rect width="64" height="64" rx="14" fill="#f6f0e2"/>
  <!-- drift squiggles -->
  <path d="M6 56 q 5 -5 10 0 q 5 5 10 0" fill="none" stroke="#5ea7d8" stroke-width="2.5" stroke-linecap="round" opacity="0.8"/>
  <path d="M40 58 q 4 -4 8 0 q 4 4 8 0" fill="none" stroke="#a9cde8" stroke-width="2.5" stroke-linecap="round"/>
  <!-- floppy ears -->
  <ellipse cx="14" cy="33" rx="7.5" ry="14" fill="#b8801f" transform="rotate(14 14 33)"/>
  <ellipse cx="50" cy="33" rx="7.5" ry="14" fill="#b8801f" transform="rotate(-14 50 33)"/>
  <!-- fluffy crown -->
  <circle cx="23" cy="15" r="5.5" fill="#dfa43c"/>
  <circle cx="32" cy="13" r="6" fill="#dfa43c"/>
  <circle cx="41" cy="15" r="5.5" fill="#dfa43c"/>
  <!-- head -->
  <circle cx="32" cy="32" r="20" fill="#dfa43c"/>
  <!-- face -->
  <circle cx="25" cy="29" r="2.7" fill="#2d3340"/>
  <circle cx="39" cy="29" r="2.7" fill="#2d3340"/>
  <ellipse cx="32" cy="37" rx="4.2" ry="3.2" fill="#2d3340"/>
  <path d="M32 40 q0 3.5 -4.5 4.5 M32 40 q0 3.5 4.5 4.5" fill="none" stroke="#2d3340" stroke-width="2" stroke-linecap="round"/>
  <path d="M30.5 44 q1.5 5 5 3.4" fill="none" stroke="#e25c50" stroke-width="3.4" stroke-linecap="round"/>
</svg>
